<?xml version="1.0" encoding="UTF-8" standalone="no"?>
<svg
   xmlns:dc="http://purl.org/dc/elements/1.1/"
   xmlns:cc="http://creativecommons.org/ns#"
   xmlns:rdf="http://www.w3.org/1999/02/22-rdf-syntax-ns#"
   xmlns:svg="http://www.w3.org/2000/svg"
   xmlns="http://www.w3.org/2000/svg"
   xmlns:sodipodi="http://sodipodi.sourceforge.net/DTD/sodipodi-0.dtd"
   xmlns:inkscape="http://www.inkscape.org/namespaces/inkscape"
   width="191px"
   height="191px"
   viewBox="0 0 191 191"
   version="1.1"
   id="svg28"
   sodipodi:docname="Husky_dog_icon.svg"
   inkscape:version="0.92.2 5c3e80d, 2017-08-06">
  <metadata
     id="metadata34">
    <rdf:RDF>
      <cc:Work
         rdf:about="">
        <dc:format>image/svg+xml</dc:format>
        <dc:type
           rdf:resource="http://purl.org/dc/dcmitype/StillImage" />
      </cc:Work>
    </rdf:RDF>
  </metadata>
  <defs
     id="defs32" />
  <sodipodi:namedview
     pagecolor="#ffffff"
     bordercolor="#666666"
     borderopacity="1"
     objecttolerance="10"
     gridtolerance="10"
     guidetolerance="10"
     inkscape:pageopacity="0"
     inkscape:pageshadow="2"
     inkscape:window-width="1443"
     inkscape:window-height="859"
     id="namedview30"
     showgrid="false"
     inkscape:zoom="5.1570317"
     inkscape:cx="100.01688"
     inkscape:cy="99.63686"
     inkscape:window-x="0"
     inkscape:window-y="0"
     inkscape:window-maximized="0"
     inkscape:current-layer="Husky_dog_icon" />
  <!-- Generator: Sketch 53.2 (72643) - https://sketchapp.com -->
  <title
     id="title2">Husky_dog_icon</title>
  <desc
     id="desc4">Created with Sketch.</desc>
  <g
     id="Husky_dog_icon"
     transform="translate(-2.1938412,1.6453809)"
     style="fill:none;fill-rule:evenodd;stroke:none;stroke-width:1">
    <path
       d="M 62.091179,19.495135 C 57.577738,20 54.228005,21.599701 47.52817,41.474651 c -4.466557,13.249967 -6.37505,24.259438 -5.72548,33.028412 -4.551148,5.94106 -7.717766,10.556044 -9.499856,13.844952 -1.232112,2.273905 -2.146338,4.404317 -2.742679,6.391236 l -4e-6,-10e-7 c -0.317526,1.057949 0.282706,2.172992 1.340655,2.490518 0.186512,0.05598 0.380199,0.08442 0.574931,0.08442 h 1.298787 c -1.33659,5.870362 -2.117521,10.765432 -2.342794,14.685202 -0.172159,2.9956 0.02278,5.48506 0.584822,7.4684 h 3e-6 c 0.276819,0.97684 1.241641,1.59128 2.243897,1.42899 l 0.40022,-0.0648 c 1.560862,6.57118 4.070342,12.18437 7.528439,16.83958 5.187146,6.98282 12.345315,13.45524 13.796911,14.86936 0.557226,0.54284 1.221567,1.10162 1.993022,1.67632 v 0 c 0.885794,0.65988 2.138812,0.47674 2.798692,-0.40906 0.05428,-0.0728 0.103525,-0.14933 0.147405,-0.22888 l 0.188433,-0.34164 c 10.444558,13.48839 22.4067,20.23258 35.886426,20.23258 13.47973,0 25.27934,-6.74419 35.39884,-20.23258 l 0.55308,1.12362 c 0.24389,0.4955 0.84329,0.69948 1.3388,0.45558 0.0749,-0.0369 0.14491,-0.083 0.20836,-0.13725 8.52317,-7.28992 14.15779,-13.18312 16.90385,-17.67961 2.84999,-4.66667 5.2444,-10.00526 7.18324,-16.01578 l 0.62673,0.32064 c 0.49166,0.25155 1.09415,0.0569 1.3457,-0.43476 0.002,-0.003 0.003,-0.007 0.005,-0.01 1.18574,-2.38182 1.66456,-5.49681 1.43644,-9.34498 -0.25748,-4.34353 -1.15141,-9.07724 -2.6818,-14.201112 l 2.12075,0.332774 c 0.5456,0.08562 1.05729,-0.287265 1.14291,-0.832859 0.0236,-0.15029 0.0126,-0.30398 -0.0322,-0.449369 -1.56407,-5.078184 -3.43275,-9.364288 -5.60606,-12.858312 -2.38796,-3.839124 -4.55294,-6.726513 -6.49496,-8.662166 -0.89239,-14.745303 -2.65986,-25.868504 -5.30243,-33.369603 -3.96384,-11.251648 -9.87718,-21.18416 -14.1778,-21.979516 -4.30063,-0.795355 -9.8508,2.791474 -15.30385,16.693292 -3.63537,9.267879 -5.45306,14.70268 -5.45306,16.304402 -3.75257,-1.156708 -8.1564,-1.735062 -13.21149,-1.735062 -5.055093,0 -9.702271,0.578354 -13.941533,1.735062 C 80.375105,46.114086 78.474913,40.283143 76.357891,35 73.182358,27.075285 66.604621,18.99027 62.091179,19.495135 Z"
       id="Path-10"
       inkscape:connector-curvature="0"
       style="fill:#ffffff;stroke:#1f2229;stroke-width:3;stroke-linecap:round;stroke-linejoin:round" />
    <path
       d="M 39.345692,73.816726 C 36.153952,78.032899 33.372055,82.163662 31,86.209015 29.162452,89.342809 27.89196,92.5275 27.188524,95.763088 l 3e-6,10e-7 c -0.340577,1.566549 0.610679,3.124046 2.159885,3.536392 L 30.101773,99.5 c 1.540069,1.94866 2.692659,2.6267 3.457769,2.03412 2.452644,-1.899575 11.500761,-0.0341 14.851744,1.35912 6.304345,2.62116 7.498194,11.88423 17.148438,15.77223 9.650245,3.888 20.263963,1.55186 23.30441,-7.65025 3.040448,-9.2021 -1.539105,-18.52197 -8.95162,-20.820531 -4.941676,-1.532375 -11.210853,-1.139751 -18.80753,1.177869 4.642054,-8.709764 12.447843,-11.028591 16.436607,-11.028591 5.983147,0 13.785094,1.329046 18.652319,1.329046 4.86723,0 13.63518,-0.82743 18.47064,-0.82743 3.22363,0 11.6743,2.539442 16.04431,10.526975 -9.19997,-1.476163 -15.81953,-1.638644 -19.85869,-0.487443 -6.05874,1.726801 -12.528599,12.008125 -7.89595,20.668825 4.63264,8.6607 21.35457,12.51655 29.26158,3.02223 7.907,-9.49431 6.77905,-11.68293 16.59935,-12.57617 6.54687,-0.59549 10.22758,-0.59549 11.04216,0 L 161,99.5 v 0 c 0.96924,0.29989 1.99807,-0.242726 2.29796,-1.211968 0.1089,-0.351961 0.10946,-0.728535 0.002,-1.080817 -1.66003,-5.421681 -3.73914,-10.00018 -6.23736,-13.735488 -2.98886,-4.468886 -4.78305,-7.68722 -5.38258,-9.655001 -1.57968,-15.851577 -3.23095,-26.591346 -4.95383,-32.219305 -2.58431,-8.44194 -9.30939,-23.561884 -17.43424,-24.533876 -8.12485,-0.971992 -14.35918,12.515614 -16.78979,18.524745 -1.6204,4.006087 -3.38677,8.712326 -5.29911,14.118716 -4.39985,-0.883553 -8.289204,-1.325329 -11.668071,-1.325329 -3.378866,0 -7.270999,0.441776 -11.676399,1.325329 C 82.118738,43.391823 80.482091,38.489487 78.948238,35 76.647459,29.765769 70.122665,17.063545 61.560838,17.063545 c -8.561828,0 -13.670758,17.348154 -17.613109,27.736843 -2.628234,6.925793 -4.162247,16.597906 -4.602037,29.016338 z"
       id="Path-11"
       inkscape:connector-curvature="0"
       style="fill:#1f2229"
       sodipodi:nodetypes="csccscccssscssscssssccccccccsccscsssc" />
    <g
       id="Group"
       transform="translate(33,36)">
      <path
         d="m 61.965013,111 c 1.925452,0 10.965014,-5.65278 10.965014,-9.68999 C 72.930027,97.272802 68.020823,94 61.965013,94 55.909204,94 51,97.272802 51,101.31001 51,105.34722 60.039562,111 61.965013,111 Z"
         id="Oval"
         inkscape:connector-curvature="0"
         style="fill:#1f2229;stroke:#1f2229;stroke-width:3" />
      <path
         d="m 59.267896,118.02634 c -1.156467,1.08981 -2.364184,1.93263 -3.621672,2.50962 0.479031,3.11738 3.17286,5.50467 6.424272,5.50467 3.252134,0 5.946437,-2.38835 6.424591,-5.50675 -1.590901,-0.78268 -2.951944,-1.78509 -4.065476,-3.01103 -0.738944,-0.81354 -1.506578,-2.00497 -2.328347,-3.60104 -0.90777,1.80896 -1.840896,3.16926 -2.833368,4.10453 z m 12.3026,0.53228 v 0.98201 c 0,5.24671 -4.253295,9.5 -9.5,9.5 -5.246705,0 -9.5,-4.25329 -9.5,-9.5 v -1.16971 c 1.570593,-0.25033 3.117237,-1.09296 4.63993,-2.52789 1.522694,-1.43493 3.107556,-4.68637 4.754587,-9.75432 1.905419,4.93698 3.46718,8.07601 4.685284,9.41708 1.218105,1.34107 2.858171,2.35868 4.920199,3.05283 z"
         id="Rectangle"
         inkscape:connector-curvature="0"
         style="fill:#1f2229;fill-rule:nonzero" />
      <path
         d="m 75.984767,120.93614 c -0.78581,0.26229 -1.635461,-0.1621 -1.897749,-0.94791 -0.262289,-0.78581 0.162109,-1.63546 0.947918,-1.89775 C 78.272366,117.00988 80.5,113.96844 80.5,110.5 c 0,-4.41828 -3.581722,-8 -8,-8 -4.418278,0 -8,3.58172 -8,8 0,0.82843 -0.671573,1.5 -1.5,1.5 -0.828427,0 -1.5,-0.67157 -1.5,-1.5 0,-6.07513 4.924868,-11 11,-11 6.075132,0 11,4.92487 11,11 0,4.76886 -3.062245,8.94982 -7.515233,10.43614 z"
         id="Oval-2"
         transform="rotate(180,72.5,110.25686)"
         inkscape:connector-curvature="0"
         style="fill:#1f2229;fill-rule:nonzero" />
      <path
         d="m 54.984766,120.93614 c -0.785809,0.26229 -1.63546,-0.1621 -1.897748,-0.94791 -0.262289,-0.78581 0.162109,-1.63546 0.947918,-1.89775 C 57.272366,117.00988 59.5,113.96844 59.5,110.5 c 0,-4.41828 -3.581722,-8 -8,-8 -4.418278,0 -8,3.58172 -8,8 0,0.82843 -0.671573,1.5 -1.5,1.5 -0.828427,0 -1.5,-0.67157 -1.5,-1.5 0,-6.07513 4.924868,-11 11,-11 6.075132,0 11,4.92487 11,11 0,4.76886 -3.062245,8.94982 -7.515234,10.43614 z"
         id="Oval-2-Copy"
         transform="matrix(1,0,0,-1,0,220.51372)"
         inkscape:connector-curvature="0"
         style="fill:#1f2229;fill-rule:nonzero" />
      <path
         d="m 79.000272,71.8576 c 0.368112,-7.061886 2.162546,-11.192722 5.383301,-12.392506 3.198054,-1.191327 6.546099,-0.09399 10.044134,3.292023 l 4.4e-5,-4.5e-5 c 0.07939,0.07685 0.08145,0.203503 0.0046,0.282893 -0.03738,0.03861 -0.08872,0.06057 -0.142457,0.06091 -2.000423,0.01291 -4.469607,0.909638 -7.40755,2.690185 -2.998832,1.817447 -5.509272,3.886888 -7.531321,6.208322 l 1.62e-4,1.4e-4 c -0.07263,0.08338 -0.199096,0.0921 -0.282476,0.01947 -0.04641,-0.04042 -0.07164,-0.09994 -0.06844,-0.161396 z"
         id="Path-24"
         inkscape:connector-curvature="0"
         style="fill:#000000" />
      <path
         d="m 31.424118,71.8576 c 0.368112,-7.061886 2.162546,-11.192722 5.383302,-12.392506 3.198053,-1.191327 6.546098,-0.09399 10.044134,3.292023 l 4.3e-5,-4.5e-5 c 0.07939,0.07685 0.08145,0.203503 0.0046,0.282893 -0.03738,0.03861 -0.08872,0.06057 -0.142457,0.06091 -2.000423,0.01291 -4.469606,0.909638 -7.40755,2.690185 -2.998832,1.817447 -5.509272,3.886888 -7.53132,6.208322 l 1.61e-4,1.4e-4 c -0.07263,0.08338 -0.199095,0.0921 -0.282475,0.01947 -0.04641,-0.04042 -0.07164,-0.09994 -0.06844,-0.161396 z"
         id="Path-24-Copy"
         transform="matrix(-1,0,0,1,78.33636,0)"
         inkscape:connector-curvature="0"
         style="fill:#000000" />
      <circle
         id="Oval-6-Copy-4"
         cx="86.5"
         cy="65.5"
         r="5.5"
         style="fill:#1388e4;stroke:#000000" />
      <circle
         id="Oval-6-Copy-5"
         cx="39.5"
         cy="65.5"
         r="5.5"
         style="fill:#1388e4;stroke:#000000" />
      <circle
         id="Oval-6"
         cx="86.5"
         cy="65.5"
         r="3.5"
         style="fill:#000000" />
      <circle
         id="Oval-6-Copy"
         cx="39.5"
         cy="65.5"
         r="3.5"
         style="fill:#000000" />
      <circle
         id="Oval-6-Copy-3"
         cx="84.5"
         cy="63.5"
         r="1.5"
         style="fill:#ffffff" />
      <circle
         id="Oval-6-Copy-6"
         cx="37.5"
         cy="63.5"
         r="1.5"
         style="fill:#ffffff" />
      <path
         d=""
         id="Path-18"
         inkscape:connector-curvature="0"
         style="stroke:#979797" />
      <path
         d=""
         id="Path-19"
         inkscape:connector-curvature="0"
         style="stroke:#979797" />
      <path
         d="M 42.266376,0.18842733 C 45.197262,8.0430648 47.099066,13.784372 47.971789,17.412349 l 14.557315,-0.984312"
         id="Path-21"
         inkscape:connector-curvature="0"
         style="stroke:#1f2229;stroke-width:3;stroke-linecap:round" />
    </g>
    <path
       d=""
       id="Path-2"
       inkscape:connector-curvature="0"
       style="stroke:#979797" />
    <path
       d="m 118.77365,58.734363 c 4.98762,2.922762 8.49359,5.190289 10.5179,6.802579 3.03646,2.418436 9.5813,7.640706 10.5666,6.6935 0.59061,-0.567775 0.59945,-6.20778 -0.57513,-13.199024 -0.78494,-4.672097 -2.44668,-10.45639 -3.5304,-13.855046 -1.688,-5.293742 -3.61849,-9.020533 -5.79147,-11.180373 l -2e-5,2e-5 c -0.29027,-0.288511 -0.72704,-0.371026 -1.10256,-0.208293 -2.44568,1.059859 -5.14178,5.101969 -8.0883,12.126328 -3.2111,7.655115 -3.87664,11.928552 -1.99662,12.820309 z"
       id="Path-9"
       inkscape:connector-curvature="0"
       style="fill:#ffffff" />
    <path
       d="m 52.041363,58.734363 c 4.987624,2.922762 8.49359,5.190289 10.5179,6.802579 3.036464,2.418436 9.581306,7.640706 10.566603,6.6935 0.590607,-0.567775 0.599447,-6.20778 -0.575128,-13.199024 C 71.765795,54.359321 70.104055,48.575028 69.020334,45.176372 67.332331,39.88263 65.401841,36.155839 63.228862,33.995999 l -2e-5,2e-5 c -0.290266,-0.288511 -0.72704,-0.371026 -1.102555,-0.208293 -2.445685,1.059859 -5.141786,5.101969 -8.088301,12.126328 -3.2111,7.655115 -3.876641,11.928552 -1.996623,12.820309 z"
       id="Path-9-Copy"
       transform="matrix(-1,0,0,1,124.5176,0)"
       inkscape:connector-curvature="0"
       style="fill:#ffffff" />
  </g>
</svg>
